<?xml version="1.0" encoding="utf-8"?>
<!-- Generator: Adobe Illustrator 24.2.3, SVG Export Plug-In . SVG Version: 6.00 Build 0)  -->
<svg version="1.1" xmlns="http://www.w3.org/2000/svg" xmlns:xlink="http://www.w3.org/1999/xlink" x="0px" y="0px"
	 viewBox="0 0 500 500" style="enable-background:new 0 0 500 500;" xml:space="preserve">
<style type="text/css">
	.st0{display:none;}
	.st1{display:inline;}
	.st2{opacity:0.8;fill:#B8BDFF;}
	.st3{opacity:0.2;}
	.st4{fill:#FFFFFF;}
	.st5{display:inline;fill:#FFFFFF;}
	.st6{opacity:0.1;fill:#2B918B;}
	.st7{display:inline;fill:#B7E2DB;}
	.st8{fill:#2B918B;}
	.st9{fill:#1C5E56;}
	.st10{fill:#2B918B;stroke:#222221;stroke-miterlimit:10;}
	.st11{fill:#FFFFFF;stroke:#222221;stroke-miterlimit:10;}
	.st12{opacity:0.5;}
	.st13{fill:#FAFFFF;stroke:#222221;stroke-miterlimit:10;}
	.st14{fill:#FDFFFF;stroke:#222221;stroke-miterlimit:10;}
	.st15{opacity:0.2;fill:#001627;}
	.st16{fill:#F1B762;}
	.st17{fill:#C68D42;stroke:#F1B762;stroke-width:1.7905;stroke-miterlimit:10;}
	.st18{fill:none;stroke:#F1B762;stroke-width:4.2768;stroke-miterlimit:10;}
	.st19{fill:none;stroke:#959FAF;stroke-width:1.0692;stroke-linecap:round;stroke-miterlimit:10;}
	.st20{opacity:0.1;fill:#001627;}
	.st21{fill:#6C7A82;}
	.st22{fill:none;stroke:#F1B762;stroke-width:2.1384;stroke-linecap:round;stroke-miterlimit:10;}
	.st23{fill:#EDAA98;}
	.st24{fill:#FFC1AC;}
	.st25{fill:#001627;}
	.st26{fill:#03243A;}
	.st27{fill:#206D68;}
	.st28{fill:#104844;}
	.st29{opacity:0.4;fill:#093E3B;}
	.st30{opacity:0.4;fill:#00302D;}
	.st31{opacity:0.2;fill:#002522;}
	.st32{fill:#AAC6D6;}
	.st33{fill:#185753;}
	.st34{fill:#567B78;}
	.st35{fill:#6A9995;}
	.st36{fill:#FAFFFF;}
	.st37{fill:#1B5E59;}
	.st38{fill:#92C8E0;}
	.st39{fill:#E6EDEF;}
</style>
<g id="BACKGROUND" class="st0">
	<g class="st1">
		<rect class="st2" width="500" height="500"/>
		<g class="st3">
			<path class="st4" d="M469.47,239.69c0,3.02-0.43,10.73-1.28,22.81c-0.85,12.18-3.63,26.24-8.33,42.18
				c-4.7,16.04-11.96,32.91-21.78,50.72c-9.82,17.91-23.7,34.47-41.63,49.67c-17.93,15.1-40.57,27.7-67.9,37.59
				c-27.33,9.89-60.64,14.79-99.92,14.79c-31.6,0-60.21-3.54-85.83-10.83c-25.62-7.19-47.61-18.22-65.97-33.01
				c-18.36-14.89-32.67-33.85-42.92-57.07c-10.25-23.12-15.37-51.03-15.37-83.73c0-27.39,4.48-54.15,13.45-80.4
				c8.97-26.24,22.85-49.57,41.63-70.09c18.79-20.52,43.13-36.87,73.02-49.05c29.89-12.18,65.33-18.22,106.33-18.22
				c70.89,0,124.69,15.93,161.41,47.9C451.11,134.83,469.47,180.44,469.47,239.69z"/>
		</g>
	</g>
</g>
<g id="OBJECTS">
	<g>
		<g class="st0">
			<path class="st5" d="M500.11,395.56c-56.37-9.49-146.96-15.65-249.13-15.65S58.23,386.07,1.85,395.56v45.7v35.56h498.64v-81.26
				H500.11z"/>
			<path class="st6" d="M500.11,395.56c-6.68-1.13-13.86-2.2-21.46-3.23c0.18,0.85,0.27,1.71,0.27,2.58
				c0,29.31-101.96,53.07-227.74,53.07S23.43,424.22,23.43,394.91c0-0.88,0.1-1.76,0.28-2.63c-7.75,1.04-15.06,2.14-21.86,3.28v45.7
				v35.56h498.64v-81.26H500.11z"/>
			<path class="st7" d="M500.81,477.32c-56.37-4.38-146.96-7.22-249.13-7.22s-192.75,2.84-249.13,7.22v21.09V500H501.2v-22.68
				H500.81z"/>
		</g>
		<g>
			<g>
				<polygon class="st8" points="133.62,384.59 116.83,417.24 117.45,422.14 366.86,424.32 366.86,417.79 349.45,384.05 				"/>
				<polygon class="st9" points="116.83,417.24 117.45,422.14 366.86,424.32 366.86,417.79 				"/>
			</g>
			<g>
				<polyline class="st10" points="126.54,218.39 364.78,216.09 351.58,371.09 131.19,366.74 122.66,213.92 				"/>
				<polygon class="st10" points="123.07,213.84 122.66,213.92 131.19,361.55 351.58,365.89 364.78,216.09 				"/>
				<polyline class="st11" points="131.97,219.73 355.46,221.74 343.29,360.02 139.85,356.01 131.97,219.73 				"/>
				<g>
					<g class="st12">
						<rect x="177.86" y="243.71" class="st10" width="159.1" height="107.85"/>
						<rect x="182.52" y="252.23" class="st13" width="8.24" height="3.57"/>
						<rect x="182.52" y="259.06" class="st13" width="8.24" height="3.57"/>
						<rect x="182.52" y="265.9" class="st13" width="8.24" height="3.57"/>
						<rect x="182.52" y="272.74" class="st13" width="8.24" height="3.57"/>
						<rect x="182.52" y="279.57" class="st13" width="8.24" height="3.57"/>
						<rect x="182.52" y="286.41" class="st13" width="8.24" height="3.57"/>
						<rect x="182.52" y="293.25" class="st13" width="8.24" height="3.57"/>
						<rect x="182.52" y="300.09" class="st13" width="8.24" height="3.57"/>
						<rect x="182.52" y="306.92" class="st13" width="8.24" height="3.57"/>
						<rect x="182.52" y="313.76" class="st13" width="8.24" height="3.57"/>
						<rect x="182.52" y="320.6" class="st13" width="8.24" height="3.57"/>
						<rect x="182.52" y="327.43" class="st13" width="8.24" height="3.57"/>
						<rect x="182.52" y="334.27" class="st13" width="8.24" height="3.57"/>
						<rect x="182.52" y="341.11" class="st13" width="8.24" height="3.57"/>
						<rect x="210.03" y="252.23" class="st13" width="14.42" height="3.57"/>
						<rect x="228.28" y="252.23" class="st13" width="67.83" height="3.57"/>
						<rect x="204.95" y="259.06" class="st13" width="17.51" height="3.57"/>
						<rect x="226.73" y="259.06" class="st13" width="75.77" height="3.57"/>
						<rect x="222.54" y="265.9" class="st13" width="24.72" height="3.57"/>
						<rect x="250.79" y="265.9" class="st13" width="60.03" height="3.57"/>
						<rect x="235.41" y="272.74" class="st13" width="23.69" height="3.57"/>
						<rect x="263.66" y="272.74" class="st13" width="60.1" height="3.57"/>
						<rect x="211.98" y="279.57" class="st13" width="16.99" height="3.57"/>
						<rect x="233.17" y="279.57" class="st13" width="68.82" height="3.57"/>
						<rect x="204.73" y="286.41" class="st13" width="14.42" height="3.57"/>
						<rect x="222.98" y="286.41" class="st13" width="73.13" height="3.57"/>
						<rect x="238.17" y="293.25" class="st13" width="21.11" height="3.57"/>
						<rect x="264.07" y="293.25" class="st13" width="56.17" height="3.57"/>
						<rect x="213.12" y="300.09" class="st13" width="24.72" height="3.57"/>
						<rect x="241.96" y="300.09" class="st13" width="65.92" height="3.57"/>
						<rect x="224.6" y="306.92" class="st13" width="45.32" height="3.57"/>
						<rect x="274.03" y="306.92" class="st13" width="55.32" height="3.57"/>
						<rect x="221.99" y="313.76" class="st13" width="33.47" height="3.57"/>
						<rect x="261.12" y="313.76" class="st13" width="54.99" height="3.57"/>
						<rect x="213.12" y="320.6" class="st13" width="32.96" height="3.57"/>
						<rect x="250.2" y="320.6" class="st13" width="60.03" height="3.57"/>
						<rect x="211.8" y="327.43" class="st13" width="22.66" height="3.57"/>
						<rect x="239.46" y="327.43" class="st13" width="61.94" height="3.57"/>
						<rect x="205.25" y="334.27" class="st13" width="21.63" height="3.57"/>
						<rect x="230.56" y="334.27" class="st13" width="83.79" height="3.57"/>
						<rect x="241.37" y="341.11" class="st13" width="24.72" height="3.57"/>
						<rect x="270.8" y="341.11" class="st13" width="58.85" height="3.57"/>
						<rect x="177.86" y="244.05" class="st13" width="159.1" height="4.3"/>
					</g>
					<rect x="144.86" y="230.71" class="st14" width="159.1" height="107.85"/>
					<g class="st12">
						<rect x="144.86" y="230.71" class="st10" width="159.1" height="107.85"/>
						<rect x="149.52" y="239.23" class="st14" width="8.24" height="3.57"/>
						<rect x="149.52" y="246.06" class="st14" width="8.24" height="3.57"/>
						<rect x="149.52" y="252.9" class="st14" width="8.24" height="3.57"/>
						<rect x="149.52" y="259.74" class="st14" width="8.24" height="3.57"/>
						<rect x="149.52" y="266.57" class="st14" width="8.24" height="3.57"/>
						<rect x="149.52" y="273.41" class="st14" width="8.24" height="3.57"/>
						<rect x="149.52" y="280.25" class="st14" width="8.24" height="3.57"/>
						<rect x="149.52" y="287.09" class="st14" width="8.24" height="3.57"/>
						<rect x="149.52" y="293.92" class="st14" width="8.24" height="3.57"/>
						<rect x="149.52" y="300.76" class="st14" width="8.24" height="3.57"/>
						<rect x="149.52" y="307.6" class="st14" width="8.24" height="3.57"/>
						<rect x="149.52" y="314.43" class="st14" width="8.24" height="3.57"/>
						<rect x="149.52" y="321.27" class="st14" width="8.24" height="3.57"/>
						<rect x="149.52" y="328.11" class="st14" width="8.24" height="3.57"/>
						<rect x="177.03" y="239.23" class="st14" width="14.42" height="3.57"/>
						<rect x="195.28" y="239.23" class="st14" width="67.83" height="3.57"/>
						<rect x="171.95" y="246.06" class="st14" width="17.51" height="3.57"/>
						<rect x="193.73" y="246.06" class="st14" width="75.77" height="3.57"/>
						<rect x="189.54" y="252.9" class="st14" width="24.72" height="3.57"/>
						<rect x="217.79" y="252.9" class="st14" width="60.03" height="3.57"/>
						<rect x="202.41" y="259.74" class="st14" width="23.69" height="3.57"/>
						<rect x="230.66" y="259.74" class="st14" width="60.1" height="3.57"/>
						<rect x="178.98" y="266.57" class="st14" width="16.99" height="3.57"/>
						<rect x="200.17" y="266.57" class="st14" width="68.82" height="3.57"/>
						<rect x="171.73" y="273.41" class="st14" width="14.42" height="3.57"/>
						<rect x="189.98" y="273.41" class="st14" width="73.13" height="3.57"/>
						<rect x="205.17" y="280.25" class="st14" width="21.11" height="3.57"/>
						<rect x="231.07" y="280.25" class="st14" width="56.17" height="3.57"/>
						<rect x="180.12" y="287.09" class="st14" width="24.72" height="3.57"/>
						<rect x="208.96" y="287.09" class="st14" width="65.92" height="3.57"/>
						<rect x="191.6" y="293.92" class="st14" width="45.32" height="3.57"/>
						<rect x="241.03" y="293.92" class="st14" width="55.32" height="3.57"/>
						<rect x="188.99" y="300.76" class="st14" width="33.47" height="3.57"/>
						<rect x="228.12" y="300.76" class="st14" width="54.99" height="3.57"/>
						<rect x="180.12" y="307.6" class="st14" width="32.96" height="3.57"/>
						<rect x="217.2" y="307.6" class="st14" width="60.03" height="3.57"/>
						<rect x="178.8" y="314.43" class="st14" width="22.66" height="3.57"/>
						<rect x="206.46" y="314.43" class="st14" width="61.94" height="3.57"/>
						<rect x="172.25" y="321.27" class="st14" width="21.63" height="3.57"/>
						<rect x="197.56" y="321.27" class="st14" width="83.79" height="3.57"/>
						<rect x="208.37" y="328.11" class="st14" width="24.72" height="3.57"/>
						<rect x="237.8" y="328.11" class="st14" width="58.85" height="3.57"/>
						<rect x="144.86" y="231.05" class="st14" width="159.1" height="4.3"/>
					</g>
				</g>
			</g>
		</g>
		<g>
			<path class="st15" d="M68.38,409.5c0,3.12,9.09,5.66,20.31,5.66c11.22,0,20.31-2.53,20.31-5.66c0-3.12-9.09-5.66-20.31-5.66
				C77.47,403.84,68.38,406.37,68.38,409.5z"/>
			<g>
				<g>
					<polygon class="st16" points="73.9,369.99 75.6,408.2 108.19,407.56 110.79,370.12 					"/>
					<path class="st17" d="M74.77,370.12c0,2.45,8.1,4.43,18.08,4.43c9.99,0,17.21-1.98,17.21-4.43c0-2.45-7.23-4.43-17.21-4.43
						C82.86,365.7,74.77,367.68,74.77,370.12z"/>
					<path class="st16" d="M75.6,407.93c0,2.45,8.4,5.18,16.9,5.18c8.51,0,15.68-3.11,15.68-5.55c0-2.45-6.9-4.43-15.41-4.43
						C84.27,403.13,75.6,405.48,75.6,407.93z"/>
				</g>
				<circle class="st18" cx="74.37" cy="387.75" r="9.82"/>
				<line class="st19" x1="101.64" y1="372.76" x2="101.64" y2="387.48"/>
				<polygon class="st4" points="101.64,383.8 96.73,388.84 97.41,396.48 106.68,396.07 107.23,387.21 				"/>
			</g>
		</g>
		<g>
			<ellipse class="st15" cx="445.08" cy="402.16" rx="27.8" ry="7.66"/>
			<g>
				<path class="st16" d="M417.09,322.73c-1.99,2.53-5.66,2.97-8.19,0.97l0,0c-2.53-1.99-2.97-5.66-0.97-8.19l12.25-15.55
					c1.99-2.53,5.66-2.97,8.19-0.97l0,0c2.53,1.99,2.97,5.66,0.97,8.19L417.09,322.73z"/>
				<path class="st20" d="M417.09,322.73c-1.99,2.53-5.66,2.97-8.19,0.97l0,0c-2.53-1.99-2.97-5.66-0.97-8.19l12.25-15.55
					c1.99-2.53,5.66-2.97,8.19-0.97l0,0c2.53,1.99,2.97,5.66,0.97,8.19L417.09,322.73z"/>
				<path class="st21" d="M417.68,399.96c-0.18,5.31,10.53,7.84,24.1,8.29s24.85-1.34,25.02-6.65c0.18-5.31-11.58-14.71-25.15-15.17
					C428.08,385.98,417.85,394.65,417.68,399.96z"/>
				<path class="st20" d="M446.72,387.02c7.33,3.88,12.36,10.08,12.22,14.21c-0.12,3.59-3.88,5.84-9.61,7.02
					c9.96-0.37,17.33-2.37,17.47-6.65C466.95,396.97,458.01,389.22,446.72,387.02z"/>
				<line class="st22" x1="472.88" y1="293.99" x2="444.02" y2="389.15"/>
				<line class="st22" x1="478.76" y1="293.99" x2="449.9" y2="389.15"/>
				<line class="st22" x1="412.72" y1="324.65" x2="485.68" y2="300.36"/>
				<line class="st22" x1="409.59" y1="319.67" x2="482.55" y2="295.38"/>
				<path class="st21" d="M420.38,344.71c0.65-0.71,1.26-1.46,1.84-2.27c7.44-10.34,5.88-24.18-3.47-30.91
					c-9.36-6.73-22.97-3.8-30.41,6.55c-0.58,0.8-1.09,1.63-1.56,2.47L420.38,344.71z"/>
				<path class="st20" d="M418.75,311.53c-0.19-0.14-0.4-0.25-0.6-0.38c4.85,7.31,4.64,17.73-1.27,25.95
					c-0.58,0.8-1.2,1.56-1.84,2.27l-27.63-19.87c-0.22,0.35-0.43,0.7-0.63,1.05l33.6,24.16c0.65-0.71,1.27-1.46,1.84-2.27
					C429.66,332.1,428.11,318.26,418.75,311.53z"/>
				<path class="st4" d="M401.1,336.01c9.47,6.72,18.36,10.47,19.84,8.38c1.49-2.1-4.99-9.24-14.46-15.96
					c-9.47-6.72-18.36-10.47-19.84-8.38C385.15,322.14,391.63,329.29,401.1,336.01z"/>
			</g>
		</g>
		<g>
			<g>
				<polygon class="st23" points="205.58,249.44 197.03,267.26 204.51,272.96 				"/>
				<path class="st24" d="M207.36,237.32c0,0-19.25,66.65,18.18,57.74l2.14,21.74l28.87,2.85l1.07-31.01c0,0,9.98-64.15,4.99-70.21
					C257.62,212.38,216.27,201.33,207.36,237.32z"/>
				<path class="st23" d="M212.21,237.32c0,0-20.25,66.65,13.33,57.74l0.87,23.39l29.93,1.2l0.96-31.01c0,0,8.95-64.15,4.48-70.21
					S220.21,201.33,212.21,237.32z"/>
				<path class="st25" d="M272.59,219.5c-4.39-5.77-9.99-7.17-13.73-7.37c-0.62-10.8-16.56-11.4-29.04-9.02
					c-16.64,3.17-31.01-10.69-31.01-10.69c-4.28,14.97,4.28,22.1,4.28,22.1c-3.92-0.71-9.27-8.2-9.27-8.2
					c-2.14,16.04,13.9,26.37,13.9,26.37c-1.07,8.2,4.99,13.9,4.99,13.9l0.71,18.53h3.21c0,0-0.71-5.7,1.78-12.47
					c2.49-6.77,8.91-0.71,7.84,10.34c-1.07,11.05-7.13,6.42-7.13,6.42c1.07,8.55,12.12,21.03,12.12,21.03h26.02
					C283.28,248.02,279.36,228.41,272.59,219.5z"/>
				<path class="st26" d="M210.62,244.02c2.6-10.2,7.99-19.89,15.87-26.4c8.35-6.89,19.22-12.07,30.11-11
					c-4.92-5.4-16.93-5.39-26.79-3.51c-16.64,3.17-31.01-10.69-31.01-10.69c-4.28,14.97,4.28,22.1,4.28,22.1
					c-3.92-0.71-9.27-8.2-9.27-8.2c-2.14,16.04,13.9,26.37,13.9,26.37C207.08,237.59,208.99,241.59,210.62,244.02z"/>
				<g>
					<path class="st23" d="M224.41,255.38c-0.35-0.36-0.71-0.69-1.09-0.98c-0.36-0.3-0.77-0.54-1.11-0.62
						c-0.37-0.07-0.46,0.04-0.63,0.27c-0.09,0.08-0.16,0.31-0.24,0.45l-0.18,0.59l0.04-0.17c-0.08,1.42-0.16,2.84-0.34,4.26
						c-0.15,1.41-0.37,2.82-0.62,4.22l-0.62-0.91c0.58,0.19,1.05,0.45,1.55,0.78c0.48,0.33,0.99,0.75,1.24,1.47
						c0.11,0.36,0.1,0.77-0.05,1.08c-0.13,0.33-0.35,0.54-0.56,0.75c-0.22,0.18-0.46,0.32-0.69,0.46c-0.25,0.11-0.5,0.21-0.74,0.31
						c0.36-0.39,0.71-0.77,0.94-1.18c0.25-0.42,0.25-0.79,0.09-1c-0.16-0.24-0.54-0.46-0.94-0.64c-0.4-0.18-0.88-0.3-1.29-0.4
						l-0.66-0.16l0.04-0.75c0.08-1.42,0.18-2.84,0.35-4.25c0.15-1.41,0.39-2.82,0.64-4.22l0.03-0.15l0.01-0.03l0.39-0.75
						c0.2-0.25,0.31-0.5,0.6-0.73c0.23-0.23,0.61-0.44,0.99-0.47c0.2-0.02,0.39-0.03,0.56,0.04c0.18,0.04,0.34,0.1,0.47,0.18
						c0.55,0.31,0.87,0.76,1.16,1.18C224.05,254.44,224.26,254.9,224.41,255.38z"/>
				</g>
			</g>
			<g>
				<g>
					<path class="st8" d="M368.94,393.27c0,0-2.14,5.65,0.78,7.4s20.46,1.56,21.04-3.7c0.58-5.26-3.7-10.91-8.96-12.28
						C376.54,383.33,368.94,393.27,368.94,393.27z"/>
					<path class="st27" d="M387.83,388.57c0.24,1.04,0.32,2.1,0.2,3.14c-0.53,4.73-14.76,5.36-19.74,4.17
						c-0.25,1.73-0.17,3.84,1.43,4.79c2.92,1.75,20.46,1.56,21.04-3.7C391.09,394.02,389.88,390.94,387.83,388.57z"/>
					<path class="st24" d="M357.83,385.09c0,0,13.83-8.38,15.78-7.79c1.95,0.58,3.9,1.36,3.9,1.36s2.73-1.56,4.48-0.78
						c1.75,0.78,9.74,3.9,8.38,5.85c-1.36,1.95-5.85,0.39-5.85,0.39s5.65,1.36,6.62,2.53c0,0,0.39,2.53-2.14,2.53
						c-2.53,0-8.38-2.14-8.38-2.14s-7.6,9.94-13.44,9.94C361.34,396.97,357.83,385.09,357.83,385.09z"/>
					<path class="st24" d="M159.74,383.79c0,0-12.04-8.38-13.73-7.79c-1.7,0.58-3.39,1.36-3.39,1.36s-2.37-1.56-3.9-0.78
						c-1.53,0.78-8.48,3.9-7.29,5.85c1.19,1.95,5.09,0.39,5.09,0.39s-4.92,1.36-5.76,2.53c0,0-0.34,2.53,1.86,2.53
						c2.2,0,7.29-2.14,7.29-2.14s6.61,9.94,11.7,9.94C156.69,395.67,159.74,383.79,159.74,383.79z"/>
					<path class="st16" d="M359.2,380.25c-5.35,0-31.19,9.44-31.19,9.44s-19.25-55.6-35.28-71.64
						c-16.04-16.04-67.89-11.23-92.49-6.95c-15.6,2.71-25.94,23.42-30.82,73.11c-10.25-5.34-15.12-7.42-19.48-6.33
						c-11.69,2.92-8.77,17.05-8.77,17.05s19.31,14.42,26.79,16.56c4.58,1.31,16.4,16.72,24.84-38.48
						c-0.49,13.15-6.49,39.62-1.12,68.54l104.78,9.62c0,0-3.63-38.36-4.94-67.77c8.4,9,17.84,33.19,27.28,33.77
						c7.77,0.48,38.79-9.13,46.28-13.4C372.56,399.49,364.54,380.25,359.2,380.25z"/>
					<path class="st20" d="M363,384.81c-5.35,0-33.05,10.8-33.05,10.8s-0.68-2.24-1.9-5.94c-0.02,0.01-0.04,0.02-0.04,0.02
						s-16.06-46.38-31.06-66.64c-0.14-0.15-0.28-0.3-0.42-0.44c-16.04-16.04-67.89-11.23-92.49-6.95
						c-15.6,2.71-25.94,23.42-30.82,73.11c-6.55-3.41-17.02-7.88-24.88-10.38c-9.81,3.76-7.18,16.54-7.18,16.54
						s19.31,14.42,26.79,16.56c4.58,1.31,16.4,16.72,24.84-38.48c-0.49,13.15-6.49,39.62-1.12,68.54l104.78,9.62
						c0,0-3.63-38.36-4.94-67.77c8.4,9,17.84,33.19,27.28,33.77c7.77,0.48,38.79-9.13,46.28-13.4c4.98-2.85,3.09-12.31-0.3-18.33
						C364.17,385.04,363.57,384.81,363,384.81z"/>
				</g>
				<path class="st28" d="M317.77,500h48.6c6.3-12.86,11.92-26.54,11.36-29.59c-5.35-28.87-82.31-35.71-82.31-35.71
					c-10.66,3.3-18.02,5.83-29.26,7.14c-23.96,2.79-48.06,1.9-72.06,0.12c1.25,11.5,3.07,21.75,5.73,28.44h86.54
					C298.14,477.25,308.51,489.06,317.77,500z"/>
			</g>
		</g>
		<g>
			<g>
				<path class="st8" d="M338.16,489.88c0,5.91-4.79,10.69-10.69,10.69H183.88c-5.91,0-10.69-4.79-10.69-10.69v-17.33
					c0-5.91,4.79-10.69,10.69-10.69h143.59c5.91,0,10.69,4.79,10.69,10.69V489.88z"/>
				<path class="st29" d="M290.05,489.98c0,5.85-4.32,10.59-9.64,10.59h-97.58c-5.33,0-9.64-4.74-9.64-10.59v-16.54
					c0-5.85,4.32-10.59,9.64-10.59h97.58c5.33,0,9.64,4.74,9.64,10.59V489.98z"/>
			</g>
			<g>
				<path class="st8" d="M290.73,415.17c0,5.43-4.4,9.83-9.83,9.83h-90.46c-5.43,0-9.83-4.4-9.83-9.83v-71.78
					c0-5.43,4.4-9.83,9.83-9.83h90.46c5.43,0,9.83,4.4,9.83,9.83V415.17z"/>
				<path class="st30" d="M279.92,415.68c0,4.9-3.97,8.87-8.87,8.87h-81.58c-4.9,0-8.87-3.97-8.87-8.87v-63.96
					c0-4.9,3.97-8.87,8.87-8.87h81.58c4.9,0,8.87,3.97,8.87,8.87V415.68z"/>
			</g>
			<g>
				<path class="st8" d="M241.71,500V393.04c0-5.16-4.18-9.34-9.34-9.34c-5.16,0-9.34,4.18-9.34,9.34V500H241.71z"/>
				<path class="st31" d="M237.37,500h4.34V393.04c0-3.7-2.16-6.89-5.28-8.4c0.6,1.23,0.94,2.6,0.94,4.06V500z"/>
			</g>
		</g>
	</g>
	<g>
		<g>
			<g>
				<path class="st8" d="M434.66,33.22h-78.21c-5.63,0-10.19,4.56-10.19,10.19V91.4c0,5.63,4.56,10.19,10.19,10.19h35.13l-5.6,20.67
					h5.6l22.35-20.67h20.73c5.63,0,10.19-4.56,10.19-10.19V43.4C444.85,37.78,440.29,33.22,434.66,33.22z"/>
				<path class="st4" d="M429.06,33.22h-78.21c-5.63,0-10.19,4.56-10.19,10.19V91.4c0,5.63,4.56,10.19,10.19,10.19h35.13v20.67
					l22.35-20.67h20.73c5.63,0,10.19-4.56,10.19-10.19V43.4C439.25,37.78,434.69,33.22,429.06,33.22z"/>
				<g>
					<path class="st8" d="M367.68,60.99c-1.43,0-2.55,0.59-3.35,1.76c-0.8,1.17-1.2,2.79-1.2,4.84c0,4.28,1.63,6.42,4.88,6.42
						c0.98,0,1.94-0.14,2.86-0.41c0.92-0.27,1.85-0.6,2.78-0.99v5.08c-1.86,0.82-3.95,1.23-6.3,1.23c-3.36,0-5.93-0.97-7.72-2.92
						s-2.68-4.76-2.68-8.44c0-2.3,0.43-4.32,1.3-6.07c0.87-1.74,2.11-3.09,3.74-4.02c1.63-0.94,3.54-1.41,5.74-1.41
						c2.4,0,4.7,0.52,6.89,1.57l-1.84,4.73c-0.82-0.39-1.64-0.71-2.46-0.97C369.5,61.12,368.62,60.99,367.68,60.99z"/>
					<path class="st8" d="M387.68,78.62l-4.55-16.02H383c0.21,2.73,0.32,4.85,0.32,6.36v9.66h-5.32V56.38h8l4.64,15.79h0.12
						l4.55-15.79h8.02v22.24h-5.52v-9.75c0-0.51,0.01-1.07,0.02-1.69c0.02-0.62,0.08-2.13,0.21-4.55h-0.14l-4.49,15.99H387.68z"/>
					<path class="st8" d="M422.65,71.87c0,1.38-0.35,2.6-1.05,3.67c-0.7,1.07-1.71,1.9-3.03,2.49c-1.32,0.59-2.86,0.89-4.64,0.89
						c-1.48,0-2.72-0.1-3.73-0.31c-1-0.21-2.05-0.57-3.13-1.09v-5.35c1.15,0.59,2.34,1.05,3.57,1.38c1.24,0.33,2.37,0.49,3.41,0.49
						c0.89,0,1.55-0.15,1.96-0.46c0.42-0.31,0.62-0.71,0.62-1.19c0-0.3-0.08-0.57-0.25-0.8c-0.17-0.23-0.44-0.46-0.81-0.69
						c-0.37-0.23-1.36-0.71-2.96-1.43c-1.45-0.66-2.54-1.3-3.26-1.92c-0.73-0.62-1.26-1.33-1.61-2.13c-0.35-0.8-0.52-1.75-0.52-2.84
						c0-2.05,0.75-3.65,2.24-4.79c1.49-1.15,3.54-1.72,6.15-1.72c2.3,0,4.65,0.53,7.04,1.6l-1.84,4.64
						c-2.08-0.95-3.87-1.43-5.38-1.43c-0.78,0-1.35,0.14-1.7,0.41c-0.35,0.27-0.53,0.61-0.53,1.02c0,0.44,0.23,0.83,0.68,1.17
						c0.45,0.34,1.68,0.97,3.67,1.89c1.92,0.86,3.25,1.79,3.99,2.78C422.28,69.12,422.65,70.37,422.65,71.87z"/>
				</g>
			</g>
			<g>
				<path class="st32" d="M248.96,121.86h-69.18c-4.98,0-9.01,4.03-9.01,9.01v42.45c0,4.78,3.73,8.69,8.44,8.98l-4.96,16.91h4.96
					l18.25-16.88h51.5c4.98,0,9.01-4.03,9.01-9.01v-42.45C257.97,125.89,253.94,121.86,248.96,121.86z"/>
				<path class="st4" d="M244,121.86h-69.18c-4.98,0-9.01,4.03-9.01,9.01v42.45c0,4.78,3.73,8.69,8.44,8.98v16.91l18.25-16.88H244
					c4.98,0,9.01-4.03,9.01-9.01v-42.45C253.01,125.89,248.98,121.86,244,121.86z"/>
				<g>
					<path class="st8" d="M192.3,142.14c-1.77,0-3.14,0.72-4.13,2.17c-0.99,1.45-1.48,3.44-1.48,5.99c0,5.29,2.01,7.93,6.03,7.93
						c1.22,0,2.39-0.17,3.53-0.51c1.14-0.34,2.29-0.75,3.44-1.22v6.28c-2.29,1.01-4.89,1.52-7.78,1.52c-4.15,0-7.33-1.2-9.54-3.61
						c-2.21-2.41-3.32-5.88-3.32-10.43c0-2.84,0.54-5.34,1.61-7.5c1.07-2.15,2.61-3.81,4.62-4.97c2.01-1.16,4.38-1.74,7.09-1.74
						c2.97,0,5.81,0.65,8.51,1.94l-2.27,5.84c-1.01-0.48-2.03-0.88-3.04-1.2C194.56,142.3,193.47,142.14,192.3,142.14z"/>
					<path class="st8" d="M210.42,152.87h-6.99v-5.04h6.99v-6.9h5.06v6.9h6.99v5.04h-6.99v6.78h-5.06V152.87z"/>
					<path class="st8" d="M232.2,152.87h-6.99v-5.04h6.99v-6.9h5.06v6.9h6.99v5.04h-6.99v6.78h-5.06V152.87z"/>
				</g>
			</g>
		</g>
		<g>
			<g>
				<circle class="st33" cx="300.36" cy="98.94" r="27.73"/>
				<circle class="st8" cx="294.44" cy="98.94" r="27.73"/>
				<g>
					<path class="st4" d="M281.08,93.67c-1.17,0-2.09,0.48-2.75,1.44c-0.66,0.96-0.99,2.29-0.99,3.98c0,3.51,1.34,5.27,4.01,5.27
						c0.81,0,1.59-0.11,2.35-0.34c0.76-0.22,1.52-0.5,2.28-0.81v4.17c-1.52,0.67-3.25,1.01-5.17,1.01c-2.75,0-4.87-0.8-6.34-2.4
						c-1.47-1.6-2.2-3.91-2.2-6.93c0-1.89,0.36-3.55,1.07-4.98c0.71-1.43,1.74-2.53,3.07-3.3c1.34-0.77,2.91-1.15,4.71-1.15
						c1.97,0,3.86,0.43,5.65,1.29l-1.51,3.88c-0.67-0.32-1.35-0.58-2.02-0.8C282.58,93.78,281.85,93.67,281.08,93.67z"/>
					<path class="st4" d="M301.48,102.59c0,1.13-0.29,2.14-0.86,3.01c-0.57,0.88-1.4,1.56-2.48,2.05c-1.08,0.49-2.35,0.73-3.81,0.73
						c-1.22,0-2.23-0.09-3.06-0.26c-0.82-0.17-1.68-0.47-2.57-0.89v-4.39c0.94,0.48,1.92,0.86,2.93,1.13
						c1.02,0.27,1.95,0.41,2.8,0.41c0.73,0,1.27-0.13,1.61-0.38c0.34-0.25,0.51-0.58,0.51-0.98c0-0.25-0.07-0.47-0.21-0.66
						c-0.14-0.19-0.36-0.38-0.66-0.57c-0.3-0.19-1.11-0.58-2.43-1.17c-1.19-0.54-2.08-1.07-2.68-1.57c-0.6-0.51-1.04-1.09-1.32-1.75
						c-0.29-0.66-0.43-1.44-0.43-2.33c0-1.68,0.61-2.99,1.84-3.93c1.22-0.94,2.9-1.41,5.04-1.41c1.89,0,3.82,0.44,5.78,1.31
						l-1.51,3.81c-1.71-0.78-3.18-1.17-4.42-1.17c-0.64,0-1.11,0.11-1.4,0.34c-0.29,0.22-0.44,0.5-0.44,0.84
						c0,0.36,0.19,0.68,0.56,0.96c0.37,0.28,1.38,0.8,3.01,1.55c1.57,0.71,2.67,1.47,3.28,2.28
						C301.17,100.34,301.48,101.36,301.48,102.59z"/>
					<path class="st4" d="M316.23,102.59c0,1.13-0.29,2.14-0.86,3.01c-0.57,0.88-1.4,1.56-2.48,2.05c-1.08,0.49-2.35,0.73-3.81,0.73
						c-1.21,0-2.23-0.09-3.06-0.26c-0.82-0.17-1.68-0.47-2.57-0.89v-4.39c0.94,0.48,1.92,0.86,2.93,1.13
						c1.02,0.27,1.95,0.41,2.8,0.41c0.73,0,1.27-0.13,1.61-0.38c0.34-0.25,0.51-0.58,0.51-0.98c0-0.25-0.07-0.47-0.21-0.66
						c-0.14-0.19-0.36-0.38-0.66-0.57c-0.3-0.19-1.11-0.58-2.43-1.17c-1.19-0.54-2.08-1.07-2.68-1.57c-0.6-0.51-1.04-1.09-1.32-1.75
						c-0.29-0.66-0.43-1.44-0.43-2.33c0-1.68,0.61-2.99,1.83-3.93c1.22-0.94,2.9-1.41,5.04-1.41c1.89,0,3.82,0.44,5.78,1.31
						l-1.51,3.81c-1.71-0.78-3.18-1.17-4.42-1.17c-0.64,0-1.11,0.11-1.4,0.34c-0.29,0.22-0.44,0.5-0.44,0.84
						c0,0.36,0.19,0.68,0.56,0.96c0.37,0.28,1.38,0.8,3.01,1.55c1.57,0.71,2.67,1.47,3.28,2.28S316.23,101.36,316.23,102.59z"/>
				</g>
			</g>
			<g>
				<g>
					<path class="st34" d="M128.51,154.56c0-20.63-16.72-37.35-37.35-37.35c-20.63,0-37.35,16.72-37.35,37.35
						c0,20.63,16.72,37.35,37.35,37.35c5.07,0,9.89-1.01,14.3-2.84l4.56,10.75h6.19v-17.55
						C123.76,175.43,128.51,165.55,128.51,154.56z"/>
					<path class="st35" d="M122.32,154.56c0-20.63-16.72-37.35-37.35-37.35s-37.35,16.72-37.35,37.35
						c0,20.63,16.72,37.35,37.35,37.35c5.07,0,9.89-1.01,14.3-2.84l10.75,10.75v-17.55C117.57,175.43,122.32,165.55,122.32,154.56z"
						/>
				</g>
				<g>
					<path class="st36" d="M71.75,172.61c-1.46,0-2.84-0.14-4.15-0.43v-6.21c0.43,0.08,0.89,0.17,1.38,0.27
						c0.49,0.1,1.01,0.15,1.58,0.15c1.32,0,2.27-0.4,2.83-1.19c0.57-0.8,0.85-2.16,0.85-4.09v-27.38h8.03v26.69
						c0,4.01-0.88,7.04-2.63,9.1S75.26,172.61,71.75,172.61z"/>
					<path class="st36" d="M105.92,156.28c0,2.46-0.84,4.31-2.51,5.57c-1.67,1.25-4.07,1.88-7.2,1.88c-1.7,0-3.18-0.09-4.43-0.27
						c-1.25-0.18-2.54-0.52-3.85-1v-6.33c1.23,0.54,2.57,0.99,4.04,1.34s2.77,0.53,3.92,0.53c1.71,0,2.57-0.39,2.57-1.17
						c0-0.4-0.24-0.77-0.72-1.08c-0.48-0.32-1.87-0.93-4.18-1.85c-2.1-0.86-3.58-1.85-4.41-2.94c-0.84-1.1-1.25-2.49-1.25-4.18
						c0-2.13,0.82-3.79,2.47-4.98c1.65-1.19,3.97-1.78,6.98-1.78c1.51,0,2.93,0.17,4.26,0.5c1.33,0.33,2.71,0.81,4.14,1.45
						l-2.15,5.1c-1.05-0.47-2.17-0.87-3.34-1.2c-1.17-0.33-2.13-0.5-2.87-0.5c-1.3,0-1.94,0.32-1.94,0.95c0,0.39,0.23,0.73,0.68,1
						c0.45,0.28,1.76,0.84,3.92,1.69c1.61,0.66,2.8,1.31,3.59,1.94c0.79,0.63,1.37,1.38,1.74,2.24
						C105.73,154.01,105.92,155.05,105.92,156.28z"/>
				</g>
			</g>
		</g>
		<g>
			<g>
				<g>
					<path class="st37" d="M163.99,21.05h-54.35c-4.26,0-7.71,3.5-7.71,7.81v55.08c0,4.31,3.45,7.81,7.71,7.81h31.96l12.5,15.29
						h5.03V91.76h4.86c4.26,0,7.71-3.5,7.71-7.81V28.86C171.7,24.55,168.25,21.05,163.99,21.05z"/>
					<path class="st8" d="M158.96,21.05h-54.35c-4.26,0-7.71,3.5-7.71,7.81v55.08c0,4.31,3.45,7.81,7.71,7.81h31.96l17.53,15.29
						V91.76h4.86c4.26,0,7.71-3.5,7.71-7.81V28.86C166.67,24.55,163.22,21.05,158.96,21.05z"/>
				</g>
				<g>
					<path class="st4" d="M123.86,65.36l-18.28-8.12v-3.11l18.28-9.15v5.37l-11.21,5.12l11.21,4.56V65.36z"/>
					<path class="st4" d="M141.53,41.76l-9.85,27.18h-6.26l9.85-27.18H141.53z"/>
					<path class="st4" d="M142.9,60.02l11.21-4.56l-11.21-5.12v-5.37l18.28,9.15v3.11l-18.28,8.12V60.02z"/>
				</g>
			</g>
			<g>
				<g>
					<path class="st37" d="M443.3,181.2h-48.56c-3.8,0-6.89,3.08-6.89,6.89v29.08c0,3.8,3.08,6.89,6.89,6.89l-2.96,13.68h5.2
						l14.79-13.68h31.54c3.8,0,6.89-3.08,6.89-6.89v-29.08C450.19,184.28,447.11,181.2,443.3,181.2z"/>
					<path class="st8" d="M438.11,181.2h-48.56c-3.8,0-6.89,3.08-6.89,6.89v29.08c0,3.8,3.08,6.89,6.89,6.89h2.24v13.68l14.79-13.68
						h31.54c3.8,0,6.89-3.08,6.89-6.89v-29.08C444.99,184.28,441.91,181.2,438.11,181.2z"/>
				</g>
				<g>
					<path class="st4" d="M402.95,210.31h-2.17v-5.95h-6.09v5.95h-2.16V197.1h2.16v5.4h6.09v-5.4h2.17V210.31z"/>
					<path class="st4" d="M410.99,210.31h-2.16v-11.36h-3.88v-1.85h9.93v1.85h-3.88V210.31z"/>
					<path class="st4" d="M422.61,210.31l-3.83-11.03h-0.07c0.1,1.64,0.15,3.17,0.15,4.61v6.42h-1.96V197.1h3.04l3.67,10.51h0.05
						l3.78-10.51h3.05v13.21h-2.08v-6.53c0-0.66,0.02-1.51,0.05-2.57c0.03-1.05,0.06-1.69,0.09-1.92h-0.07l-3.97,11.01H422.61z"/>
					<path class="st4" d="M433.97,210.31V197.1h2.16v11.36h5.59v1.85H433.97z"/>
				</g>
			</g>
		</g>
		<g>
			<g>
				
					<ellipse transform="matrix(0.9711 -0.2385 0.2385 0.9711 -53.0626 27.7026)" class="st38" cx="87.92" cy="233.08" rx="18.64" ry="18.64"/>
				
					<ellipse transform="matrix(0.9728 -0.2316 0.2316 0.9728 -51.6854 25.8923)" class="st39" cx="84.43" cy="233.08" rx="18.64" ry="18.64"/>
				<g>
					<path class="st8" d="M78.93,232.66c0-2.27,0.33-4.4,1-6.38c0.66-1.98,1.62-3.72,2.88-5.21h2.64c-1.19,1.61-2.11,3.42-2.74,5.42
						c-0.64,2-0.95,4.05-0.95,6.14c0,2.09,0.32,4.12,0.95,6.09c0.63,1.96,1.54,3.74,2.72,5.33H82.8c-1.26-1.46-2.22-3.16-2.88-5.11
						C79.26,237,78.93,234.9,78.93,232.66z"/>
					<path class="st8" d="M87.93,227.28c0-1.3,0.63-1.94,1.9-1.94c0.64,0,1.12,0.17,1.44,0.51c0.32,0.34,0.48,0.82,0.48,1.43
						c0,0.61-0.17,1.09-0.5,1.45c-0.33,0.36-0.8,0.53-1.42,0.53c-0.62,0-1.09-0.18-1.42-0.53C88.1,228.39,87.93,227.9,87.93,227.28z
						 M87.93,238.27c0-0.63,0.16-1.11,0.49-1.44c0.33-0.33,0.8-0.5,1.42-0.5c0.63,0,1.1,0.17,1.43,0.52
						c0.33,0.35,0.49,0.82,0.49,1.42c0,0.61-0.17,1.09-0.5,1.45c-0.33,0.36-0.8,0.53-1.42,0.53c-0.62,0-1.09-0.18-1.42-0.53
						C88.1,239.38,87.93,238.89,87.93,238.27z"/>
				</g>
			</g>
			<g>
				<path class="st38" d="M364.97,164.6c0-16.42-13.31-29.72-29.72-29.72c-16.42,0-29.72,13.31-29.72,29.72
					c0,15.13,11.31,27.61,25.93,29.47l3.99,12.69h4.64l4-13.78C356.19,189.22,364.97,177.94,364.97,164.6z"/>
				<path class="st39" d="M360.34,164.6c0-16.42-13.31-29.72-29.72-29.72c-16.42,0-29.72,13.31-29.72,29.72
					c0,15.13,11.31,27.61,25.93,29.47l8.63,12.69l4-13.78C351.55,189.22,360.34,177.94,360.34,164.6z"/>
				<g>
					<path class="st8" d="M323.08,160.71c0,1.74-0.51,3.09-1.54,4.04c-1.03,0.95-2.49,1.42-4.38,1.42h-1.18v5.17h-4.21v-15.6h5.4
						c1.97,0,3.45,0.43,4.44,1.29C322.59,157.9,323.08,159.12,323.08,160.71z M315.98,162.73h0.77c0.63,0,1.14-0.18,1.51-0.53
						c0.37-0.36,0.56-0.85,0.56-1.47c0-1.05-0.58-1.58-1.75-1.58h-1.09V162.73z"/>
					<path class="st8" d="M338.93,171.34h-4.24v-6.36h-4.9v6.36h-4.24v-15.6h4.24v5.78h4.9v-5.78h4.24V171.34z"/>
					<path class="st8" d="M353.63,160.71c0,1.74-0.51,3.09-1.54,4.04c-1.03,0.95-2.49,1.42-4.38,1.42h-1.18v5.17h-4.21v-15.6h5.4
						c1.97,0,3.45,0.43,4.44,1.29C353.13,157.9,353.63,159.12,353.63,160.71z M346.52,162.73h0.77c0.63,0,1.14-0.18,1.51-0.53
						c0.37-0.36,0.56-0.85,0.56-1.47c0-1.05-0.58-1.58-1.75-1.58h-1.09V162.73z"/>
				</g>
			</g>
			<g>
				<path class="st38" d="M230.54,47.76h-33.76c-2.64,0-4.79,2.14-4.79,4.79V86.3c0,2.64,2.14,4.79,4.79,4.79h16.86l9.21,12.24h4.87
					V91.09h2.82c2.64,0,4.79-2.14,4.79-4.79V52.55C235.33,49.9,233.18,47.76,230.54,47.76z"/>
				<path class="st39" d="M225.67,47.76h-33.76c-2.64,0-4.79,2.14-4.79,4.79V86.3c0,2.64,2.14,4.79,4.79,4.79h16.86l14.09,12.24
					V91.09h2.81c2.64,0,4.79-2.14,4.79-4.79V52.55C230.46,49.9,228.31,47.76,225.67,47.76z"/>
				<g>
					<g>
						<path class="st8" d="M224.09,81.1c1.01,1.01,1.01,2.64,0,3.65l0,0c-1.01,1.01-2.64,1.01-3.65,0l-7.18-7.18
							c-1.01-1.01-1.01-2.64,0-3.65l0,0c1.01-1.01,2.64-1.01,3.65,0L224.09,81.1z"/>
					</g>
					<g>
						<path class="st8" d="M210.85,71.51c-3.93,3.93-10.34,3.93-14.27,0c-3.93-3.93-3.93-10.34,0-14.27
							c3.93-3.93,10.34-3.93,14.27,0C214.78,61.17,214.78,67.57,210.85,71.51z M198.19,58.85c-3.05,3.05-3.05,8,0,11.05
							c3.05,3.05,8,3.05,11.05,0c3.05-3.05,3.05-8,0-11.05C206.19,55.8,201.23,55.8,198.19,58.85z"/>
					</g>
					<g>
						
							<rect x="212.82" y="69.08" transform="matrix(0.7071 -0.7071 0.7071 0.7071 9.9057 173.1428)" class="st8" width="2.28" height="11.07"/>
					</g>
				</g>
			</g>
		</g>
	</g>
</g>
<g id="DESIGNED_BY_FREEPIK" class="st0">
	<g class="st1">
		<g id="XMLID_319_">
			<g id="XMLID_338_">
				<path id="XMLID_346_" class="st4" d="M260.1,474.47c-0.43,0.44-0.8,0.93-1.11,1.45l-0.47-0.24c-0.07-0.3-0.35-0.5-0.66-0.47
					c-0.33,0.04-0.57,0.34-0.53,0.67s0.34,0.57,0.67,0.53c0.07-0.01,0.13-0.03,0.18-0.05l0.45,0.23c-0.25,0.55-0.43,1.14-0.54,1.74
					l0.75,0.13c0.23-1.31,0.85-2.51,1.79-3.47L260.1,474.47z"/>
				<path id="XMLID_345_" class="st4" d="M265.59,472.16c-0.17,0-0.34,0.01-0.51,0.02l-0.07-0.63c0.19-0.15,0.3-0.39,0.27-0.64
					c-0.05-0.39-0.4-0.67-0.8-0.63s-0.67,0.4-0.63,0.8c0.03,0.25,0.19,0.46,0.4,0.56l0.07,0.62c-0.71,0.12-1.4,0.33-2.06,0.65
					l0.33,0.68c0.93-0.45,1.94-0.67,3-0.67c0.5,0,0.99,0.05,1.48,0.16l0.16-0.74C266.69,472.22,266.14,472.16,265.59,472.16z"/>
				<path id="XMLID_344_" class="st4" d="M272.19,474.71c0.33-0.04,0.57-0.34,0.53-0.67c-0.04-0.33-0.34-0.57-0.67-0.53
					c-0.31,0.04-0.54,0.3-0.53,0.61l-0.42,0.36c-0.42-0.43-0.89-0.81-1.41-1.14l-0.4,0.64c1.13,0.71,2.02,1.73,2.56,2.93l0.69-0.31
					c-0.25-0.55-0.57-1.07-0.94-1.55l0.4-0.35C272.06,474.72,272.13,474.72,272.19,474.71z"/>
				<path id="XMLID_343_" class="st4" d="M265.04,482.37c-0.39,0.02-0.77,0.03-1.16,0.03c-0.88,0-1.73-0.06-2.48-0.18
					c-0.39-0.06-0.85-0.15-1.27-0.29c1.05,1.86,3.07,3.13,5.39,3.13c2.86,0,5.26-1.92,5.95-4.5c-0.68,0.45-1.51,0.83-2.46,1.12
					C267.84,482.05,266.46,482.29,265.04,482.37z"/>
				<path id="XMLID_339_" class="st4" d="M265.59,473.68c-3.35,0-6.08,2.67-6.08,5.94c0,0.43,0.05,0.85,0.14,1.26
					c0.67,0.48,2.71,0.89,5.35,0.73c2.88-0.17,5.3-0.96,6.67-2.16c-0.01-0.19-0.02-0.39-0.05-0.58
					C271.24,475.91,268.65,473.68,265.59,473.68z M263.43,480.19c-1.02,0-1.85-0.83-1.85-1.85c0-1.02,0.83-1.85,1.85-1.85
					c1.02,0,1.85,0.83,1.85,1.85C265.28,479.36,264.45,480.19,263.43,480.19z M268.17,479.29c-0.75,0-1.36-0.61-1.36-1.36
					s0.61-1.36,1.36-1.36c0.75,0,1.36,0.61,1.36,1.36S268.92,479.29,268.17,479.29z"/>
			</g>
			<path id="XMLID_336_" class="st4" d="M281.6,475.55c-0.29-0.12-0.81-0.31-1.38-0.24c-0.55,0.07-0.84,0.34-0.84,1.01v0.87h2.23
				v1.72h-2.23v5.45h-1.93v-5.45h-1.34v-1.72h1.34v-0.89c0-1.68,0.9-2.78,2.57-2.78c0.64,0,1.16,0.12,1.59,0.31L281.6,475.55z"/>
			<path id="XMLID_334_" class="st4" d="M286.3,478.88c-0.18-0.03-0.36-0.05-0.53-0.05c-0.9,0-1.51,0.55-1.51,1.61v3.91h-1.93v-7.17
				h1.87v0.78c0.45-0.67,1.14-0.98,2.02-0.98c0.41,0,0.85,0.13,1.09,0.34L286.3,478.88z"/>
			<path id="XMLID_331_" class="st4" d="M293.97,480.76c0,0.22-0.01,0.49-0.04,0.65h-5.08c0.21,1.04,0.93,1.49,1.84,1.49
				c0.62,0,1.3-0.25,1.81-0.69l1.13,1.24c-0.81,0.75-1.85,1.09-3.06,1.09c-2.2,0-3.72-1.5-3.72-3.75c0-2.26,1.48-3.8,3.63-3.8
				C292.54,476.99,293.96,478.52,293.97,480.76z M288.85,480.09h3.18c-0.18-0.92-0.73-1.44-1.56-1.44
				C289.55,478.65,289.02,479.2,288.85,480.09z"/>
			<path id="XMLID_328_" class="st4" d="M301.62,480.76c0,0.22-0.02,0.49-0.04,0.65h-5.08c0.21,1.04,0.93,1.49,1.84,1.49
				c0.62,0,1.3-0.25,1.81-0.69l1.13,1.24c-0.81,0.75-1.85,1.09-3.06,1.09c-2.2,0-3.72-1.5-3.72-3.75c0-2.26,1.48-3.8,3.63-3.8
				C300.2,476.99,301.61,478.52,301.62,480.76z M296.5,480.09h3.18c-0.18-0.92-0.73-1.44-1.56-1.44
				C297.21,478.65,296.67,479.2,296.5,480.09z"/>
			<path id="XMLID_325_" class="st4" d="M309.96,480.76c0,2.15-1.5,3.77-3.47,3.77c-0.96,0-1.64-0.38-2.11-0.93v3.71h-1.92v-10.13
				h1.89v0.79c0.47-0.58,1.15-0.98,2.14-0.98C308.47,476.99,309.96,478.61,309.96,480.76z M304.29,480.76
				c0,1.13,0.75,1.98,1.84,1.98c1.14,0,1.85-0.88,1.85-1.98c0-1.1-0.71-1.98-1.85-1.98C305.03,478.79,304.29,479.63,304.29,480.76z"
				/>
			<path id="XMLID_322_" class="st4" d="M313.07,474.84c0,0.7-0.54,1.23-1.24,1.23c-0.7,0-1.23-0.53-1.23-1.23
				c0-0.7,0.53-1.24,1.23-1.24C312.53,473.59,313.07,474.14,313.07,474.84z M312.81,484.35h-1.93v-7.17h1.93V484.35z"/>
			<path id="XMLID_320_" class="st4" d="M316.03,479.74l2.7-2.55h2.37l-3.48,3.38l3.5,3.8h-2.38l-2.72-2.9v2.9h-1.93V473.7h1.93
				V479.74z"/>
		</g>
		<g>
			<path class="st4" d="M184.41,484.29v-1.05c-0.53,0.72-1.39,1.23-2.39,1.23c-1.85,0-3.15-1.41-3.15-3.71
				c0-2.26,1.29-3.72,3.15-3.72c0.95,0,1.82,0.47,2.39,1.25v-3.76h1.1v9.77H184.41z M184.41,482.37v-3.21
				c-0.4-0.62-1.24-1.14-2.12-1.14c-1.42,0-2.27,1.17-2.27,2.74c0,1.57,0.85,2.72,2.27,2.72
				C183.17,483.48,184.02,482.99,184.41,482.37z"/>
			<path class="st4" d="M186.93,480.74c0-2.05,1.46-3.71,3.49-3.71c2.14,0,3.4,1.67,3.4,3.79v0.28h-5.73
				c0.09,1.33,1.03,2.45,2.55,2.45c0.81,0,1.63-0.32,2.18-0.89l0.53,0.72c-0.7,0.7-1.65,1.08-2.81,1.08
				C188.44,484.46,186.93,482.96,186.93,480.74z M190.4,477.95c-1.51,0-2.26,1.27-2.31,2.36h4.64
				C192.72,479.25,192.01,477.95,190.4,477.95z"/>
			<path class="st4" d="M194.61,483.35l0.57-0.79c0.47,0.54,1.36,1.01,2.33,1.01c1.08,0,1.67-0.51,1.67-1.22
				c0-1.71-4.38-0.66-4.38-3.28c0-1.1,0.95-2.04,2.64-2.04c1.2,0,2.05,0.45,2.62,1.03l-0.51,0.76c-0.42-0.51-1.2-0.89-2.11-0.89
				c-0.97,0-1.57,0.48-1.57,1.11c0,1.55,4.38,0.53,4.38,3.28c0,1.19-0.95,2.14-2.78,2.14C196.31,484.46,195.32,484.11,194.61,483.35
				z"/>
			<path class="st4" d="M201.48,475.47c0-0.41,0.34-0.75,0.73-0.75c0.41,0,0.75,0.34,0.75,0.75c0,0.41-0.34,0.73-0.75,0.73
				C201.81,476.2,201.48,475.88,201.48,475.47z M201.67,484.29v-7.07h1.1v7.07H201.67z"/>
			<path class="st4" d="M204.58,486.11l0.56-0.82c0.59,0.7,1.29,0.97,2.3,0.97c1.17,0,2.27-0.57,2.27-2.12v-1.01
				c-0.51,0.72-1.38,1.26-2.37,1.26c-1.85,0-3.15-1.38-3.15-3.66c0-2.27,1.29-3.68,3.15-3.68c0.95,0,1.8,0.47,2.37,1.25v-1.07h1.1
				v6.87c0,2.34-1.64,3.08-3.37,3.08C206.24,487.16,205.42,486.93,204.58,486.11z M209.71,482.25v-3.09
				c-0.38-0.62-1.23-1.14-2.11-1.14c-1.42,0-2.27,1.13-2.27,2.7c0,1.55,0.85,2.7,2.27,2.7
				C208.48,483.41,209.33,482.87,209.71,482.25z"/>
			<path class="st4" d="M217.41,484.29v-4.63c0-1.24-0.63-1.64-1.58-1.64c-0.86,0-1.68,0.53-2.09,1.1v5.17h-1.1v-7.07h1.1v1.03
				c0.5-0.59,1.46-1.2,2.52-1.2c1.48,0,2.26,0.75,2.26,2.29v4.97H217.41z"/>
			<path class="st4" d="M219.93,480.74c0-2.05,1.46-3.71,3.49-3.71c2.14,0,3.4,1.67,3.4,3.79v0.28h-5.73
				c0.09,1.33,1.03,2.45,2.55,2.45c0.81,0,1.63-0.32,2.18-0.89l0.53,0.72c-0.7,0.7-1.66,1.08-2.81,1.08
				C221.44,484.46,219.93,482.96,219.93,480.74z M223.4,477.95c-1.51,0-2.26,1.27-2.31,2.36h4.64
				C225.72,479.25,225.02,477.95,223.4,477.95z"/>
			<path class="st4" d="M233.35,484.29v-1.05c-0.53,0.72-1.39,1.23-2.39,1.23c-1.85,0-3.15-1.41-3.15-3.71
				c0-2.26,1.29-3.72,3.15-3.72c0.95,0,1.82,0.47,2.39,1.25v-3.76h1.1v9.77H233.35z M233.35,482.37v-3.21
				c-0.4-0.62-1.25-1.14-2.12-1.14c-1.42,0-2.27,1.17-2.27,2.74c0,1.57,0.85,2.72,2.27,2.72
				C232.1,483.48,232.95,482.99,233.35,482.37z"/>
			<path class="st4" d="M239.69,484.29v-9.77h1.1v3.76c0.57-0.78,1.42-1.25,2.39-1.25c1.85,0,3.15,1.46,3.15,3.72
				c0,2.3-1.3,3.71-3.15,3.71c-1,0-1.86-0.51-2.39-1.23v1.05H239.69z M242.9,483.48c1.44,0,2.29-1.16,2.29-2.72
				c0-1.57-0.85-2.74-2.29-2.74c-0.86,0-1.73,0.53-2.11,1.14v3.21C241.17,482.99,242.04,483.48,242.9,483.48z"/>
			<path class="st4" d="M247.53,486.06c0.16,0.07,0.43,0.12,0.6,0.12c0.48,0,0.81-0.16,1.05-0.75l0.47-1.07l-2.96-7.15h1.19
				l2.36,5.8l2.34-5.8h1.2l-3.54,8.51c-0.42,1.03-1.14,1.42-2.08,1.44c-0.23,0-0.6-0.04-0.81-0.1L247.53,486.06z"/>
		</g>
	</g>
</g>
</svg>
